<svg xmlns="http://www.w3.org/2000/svg" viewBox="0 0 1450 900" role="img" aria-label="05 Diagrama de componentes UML"><defs><marker id="arrow" markerWidth="10" markerHeight="10" refX="9" refY="5" orient="auto"><path d="M1 1 L9 5 L1 9" fill="none" stroke="#46566b"/></marker><marker id="gen" markerWidth="12" markerHeight="12" refX="11" refY="6" orient="auto"><path d="M1 1 L11 6 L1 11 Z" fill="white" stroke="#46566b"/></marker></defs><rect width="100%" height="100%" fill="white"/><polyline points="330.0,130.0 540.0,130.0" fill="none" stroke="#46566b" stroke-width="1.5" stroke-dasharray="6 4" marker-end="url(#arrow)"/><polyline points="200,80 200,35 1225,35 1225,80" fill="none" stroke="#46566b" stroke-width="1.5" stroke-dasharray="6 4" marker-end="url(#arrow)"/><polyline points="613.9285714285714,180.0 286.07142857142856,360.0" fill="none" stroke="#46566b" stroke-width="1.5" stroke-dasharray="6 4" marker-end="url(#arrow)"/><polyline points="677.3214285714286,180.0 577.6785714285714,360.0" fill="none" stroke="#46566b" stroke-width="1.5" stroke-dasharray="6 4" marker-end="url(#arrow)"/><polyline points="739.8214285714286,180.0 865.1785714285714,360.0" fill="none" stroke="#46566b" stroke-width="1.5" stroke-dasharray="6 4" marker-end="url(#arrow)"/><polyline points="802.3214285714286,180.0 1152.6785714285713,360.0" fill="none" stroke="#46566b" stroke-width="1.5" stroke-dasharray="6 4" marker-end="url(#arrow)"/><polyline points="192.45762711864407,460.0 182.79661016949152,650.0" fill="none" stroke="#46566b" stroke-width="1.5" stroke-dasharray="6 4" marker-end="url(#arrow)"/><polyline points="550.0,460.0 550.0,650.0" fill="none" stroke="#46566b" stroke-width="1.5" stroke-dasharray="6 4" marker-end="url(#arrow)"/><polyline points="900.0,460.0 900.0,650.0" fill="none" stroke="#46566b" stroke-width="1.5" stroke-dasharray="6 4" marker-end="url(#arrow)"/><polyline points="1250.0,460.0 1250.0,650.0" fill="none" stroke="#46566b" stroke-width="1.5" stroke-dasharray="6 4" marker-end="url(#arrow)"/><polyline points="1250,460 1250,545 195,545 195,460" fill="none" stroke="#46566b" stroke-width="1.5" stroke-dasharray="6 4" marker-end="url(#arrow)"/><rect x="70" y="80" width="260" height="100" rx="0" fill="#e8f0fc" stroke="#46566b" stroke-width="1.3"/><text x="200.0" y="125.0" font-family="Arial,sans-serif" font-size="17" text-anchor="middle" fill="#172033">«component»</text><text x="200.0" y="148.0" font-family="Arial,sans-serif" font-size="17" text-anchor="middle" fill="#172033">Portal React</text><rect x="1080" y="80" width="290" height="100" rx="0" fill="#e8f0fc" stroke="#46566b" stroke-width="1.3"/><text x="1225.0" y="125.0" font-family="Arial,sans-serif" font-size="17" text-anchor="middle" fill="#172033">«component externo»</text><text x="1225.0" y="148.0" font-family="Arial,sans-serif" font-size="17" text-anchor="middle" fill="#172033">Proveedor de identidad</text><rect x="540" y="80" width="330" height="100" rx="0" fill="#e8f0fc" stroke="#46566b" stroke-width="1.3"/><text x="705.0" y="125.0" font-family="Arial,sans-serif" font-size="17" text-anchor="middle" fill="#172033">«component»</text><text x="705.0" y="148.0" font-family="Arial,sans-serif" font-size="17" text-anchor="middle" fill="#172033">Gateway y composición</text><rect x="50" y="360" width="290" height="100" rx="0" fill="#e8f0fc" stroke="#46566b" stroke-width="1.3"/><text x="195.0" y="405.0" font-family="Arial,sans-serif" font-size="17" text-anchor="middle" fill="#172033">«component»</text><text x="195.0" y="428.0" font-family="Arial,sans-serif" font-size="17" text-anchor="middle" fill="#172033">Organización y seguimiento</text><rect x="420" y="360" width="260" height="100" rx="0" fill="#e8f0fc" stroke="#46566b" stroke-width="1.3"/><text x="550.0" y="405.0" font-family="Arial,sans-serif" font-size="17" text-anchor="middle" fill="#172033">«component»</text><text x="550.0" y="428.0" font-family="Arial,sans-serif" font-size="17" text-anchor="middle" fill="#172033">Certificaciones</text><rect x="770" y="360" width="260" height="100" rx="0" fill="#e8f0fc" stroke="#46566b" stroke-width="1.3"/><text x="900.0" y="405.0" font-family="Arial,sans-serif" font-size="17" text-anchor="middle" fill="#172033">«component»</text><text x="900.0" y="428.0" font-family="Arial,sans-serif" font-size="17" text-anchor="middle" fill="#172033">Impedimentos</text><rect x="1120" y="360" width="260" height="100" rx="0" fill="#e8f0fc" stroke="#46566b" stroke-width="1.3"/><text x="1250.0" y="405.0" font-family="Arial,sans-serif" font-size="17" text-anchor="middle" fill="#172033">«component»</text><text x="1250.0" y="428.0" font-family="Arial,sans-serif" font-size="17" text-anchor="middle" fill="#172033">Integraciones</text><rect x="50" y="650" width="260" height="110" rx="10" fill="#f2f4f7" stroke="#46566b" stroke-width="1.3"/><text x="180.0" y="689.0" font-family="Arial,sans-serif" font-size="17" text-anchor="middle" fill="#172033">«data store»</text><text x="180.0" y="712.0" font-family="Arial,sans-serif" font-size="17" text-anchor="middle" fill="#172033">PostgreSQL</text><text x="180.0" y="735.0" font-family="Arial,sans-serif" font-size="17" text-anchor="middle" fill="#172033">organizacion</text><rect x="420" y="650" width="260" height="110" rx="10" fill="#f2f4f7" stroke="#46566b" stroke-width="1.3"/><text x="550.0" y="689.0" font-family="Arial,sans-serif" font-size="17" text-anchor="middle" fill="#172033">«data store»</text><text x="550.0" y="712.0" font-family="Arial,sans-serif" font-size="17" text-anchor="middle" fill="#172033">PostgreSQL</text><text x="550.0" y="735.0" font-family="Arial,sans-serif" font-size="17" text-anchor="middle" fill="#172033">certificaciones</text><rect x="770" y="650" width="260" height="110" rx="10" fill="#f2f4f7" stroke="#46566b" stroke-width="1.3"/><text x="900.0" y="689.0" font-family="Arial,sans-serif" font-size="17" text-anchor="middle" fill="#172033">«data store»</text><text x="900.0" y="712.0" font-family="Arial,sans-serif" font-size="17" text-anchor="middle" fill="#172033">PostgreSQL</text><text x="900.0" y="735.0" font-family="Arial,sans-serif" font-size="17" text-anchor="middle" fill="#172033">impedimentos</text><rect x="1120" y="650" width="260" height="110" rx="10" fill="#f2f4f7" stroke="#46566b" stroke-width="1.3"/><text x="1250.0" y="689.0" font-family="Arial,sans-serif" font-size="17" text-anchor="middle" fill="#172033">«data store»</text><text x="1250.0" y="712.0" font-family="Arial,sans-serif" font-size="17" text-anchor="middle" fill="#172033">PostgreSQL</text><text x="1250.0" y="735.0" font-family="Arial,sans-serif" font-size="17" text-anchor="middle" fill="#172033">integraciones</text><rect x="430" y="785" width="620" height="70" rx="10" fill="#fff2d8" stroke="#46566b" stroke-width="1.3"/><text x="740.0" y="815.0" font-family="Arial,sans-serif" font-size="17" text-anchor="middle" fill="#172033">Todos los servicios validan identidad, rol y ámbito.</text><text x="740.0" y="838.0" font-family="Arial,sans-serif" font-size="17" text-anchor="middle" fill="#172033">Sin escrituras ni consultas SQL entre esquemas de otros servicios.</text><rect x="394.0" y="108.0" width="82.0" height="19" fill="white"/><text x="435.0" y="122.0" font-family="Arial,sans-serif" font-size="13" text-anchor="middle" fill="#172033">HTTPS REST</text><rect x="671.5" y="13.0" width="82.0" height="19" fill="white"/><text x="712.5" y="27.0" font-family="Arial,sans-serif" font-size="13" text-anchor="middle" fill="#172033">Autenticar</text><rect x="416.2" y="248.0" width="67.6" height="19" fill="white"/><text x="450.0" y="262.0" font-family="Arial,sans-serif" font-size="13" text-anchor="middle" fill="#172033">API REST</text><rect x="593.7" y="248.0" width="67.6" height="19" fill="white"/><text x="627.5" y="262.0" font-family="Arial,sans-serif" font-size="13" text-anchor="middle" fill="#172033">API REST</text><rect x="768.7" y="248.0" width="67.6" height="19" fill="white"/><text x="802.5" y="262.0" font-family="Arial,sans-serif" font-size="13" text-anchor="middle" fill="#172033">API REST</text><rect x="943.7" y="248.0" width="67.6" height="19" fill="white"/><text x="977.5" y="262.0" font-family="Arial,sans-serif" font-size="13" text-anchor="middle" fill="#172033">API REST</text><rect x="143.0271186440678" y="533.0" width="89.2" height="19" fill="white"/><text x="187.6271186440678" y="547.0" font-family="Arial,sans-serif" font-size="13" text-anchor="middle" fill="#172033">SQL privado</text><rect x="505.4" y="533.0" width="89.2" height="19" fill="white"/><text x="550.0" y="547.0" font-family="Arial,sans-serif" font-size="13" text-anchor="middle" fill="#172033">SQL privado</text><rect x="855.4" y="533.0" width="89.2" height="19" fill="white"/><text x="900.0" y="547.0" font-family="Arial,sans-serif" font-size="13" text-anchor="middle" fill="#172033">SQL privado</text><rect x="1205.4" y="533.0" width="89.2" height="19" fill="white"/><text x="1250.0" y="547.0" font-family="Arial,sans-serif" font-size="13" text-anchor="middle" fill="#172033">SQL privado</text><rect x="631.1" y="523.0" width="182.8" height="19" fill="white"/><text x="722.5" y="537.0" font-family="Arial,sans-serif" font-size="13" text-anchor="middle" fill="#172033">Importar HU mediante API</text></svg>